<svg width="32" height="16" viewBox="0 0 32 16" fill="none" xmlns="http://www.w3.org/2000/svg">
<path d="M28.1528 8.92576H27.5995C14.6356 8.92576 14.3949 8.92576 1.42639 8.92576C1.19381 8.93225 0.961167 8.91558 0.731894 8.87599C0.53177 8.83726 0.350599 8.73204 0.217805 8.57739C0.0850116 8.42274 0.00835491 8.22776 0.000323405 8.02408C-0.00530288 7.81293 0.0626302 7.60639 0.192485 7.43979C0.32234 7.2732 0.506034 7.1569 0.712169 7.11081C0.910018 7.0727 1.1116 7.05717 1.31296 7.06452H28.2593C28.0892 6.88048 27.9908 6.76473 27.8831 6.65824C26.2407 5.01229 24.5924 3.37096 22.9569 1.71806C22.7707 1.54147 22.6318 1.32099 22.5529 1.07681C22.5047 0.90044 22.5176 0.712961 22.5895 0.544847C22.6614 0.376732 22.788 0.237866 22.9488 0.15082C23.1061 0.0452508 23.293 -0.00730303 23.4822 0.00081742C23.6715 0.00893787 23.8532 0.0773096 24.0009 0.195964C24.1249 0.294855 24.241 0.403211 24.3482 0.52006L31.0929 7.25666C31.5755 7.73933 31.5825 8.25326 31.1068 8.72783C28.8381 10.9942 26.5678 13.2583 24.2961 15.52C24.1112 15.7186 23.8814 15.8698 23.6259 15.961C23.215 16.0767 22.8585 15.9182 22.6339 15.5339C22.4094 15.1496 22.4939 14.7236 22.8654 14.359C24.4658 12.7524 26.069 11.1485 27.6748 9.54733C27.8473 9.37602 28.0324 9.21745 28.2119 9.05309L28.1528 8.92576Z" fill="#7BC18F"/>
</svg>
