<svg xmlns="http://www.w3.org/2000/svg" width="35" height="35" viewBox="0 0 35 35" fill="none">
<path d="M2.42346 0C1.78026 0.00180212 1.16387 0.350278 0.709522 0.968945C0.255178 1.58761 1.08573e-05 2.42592 1.22245e-05 3.29995V3.56531C0.234316 3.22575 0.517406 2.95516 0.831767 2.77025C1.14613 2.58533 1.48505 2.49002 1.8276 2.49026H23.0179C22.8855 1.77974 22.5829 1.1493 22.1577 0.698386C21.7325 0.247475 21.2089 0.00177534 20.6695 0H2.42346Z" fill="#0E3654"/>
<path d="M32.5765 3.35438H2.42346C1.08502 3.35438 0 4.82878 0 6.64754V31.7068C0 33.5256 1.08502 35 2.42346 35H32.5765C33.915 35 35 33.5256 35 31.7068V6.64754C35 4.82878 33.915 3.35438 32.5765 3.35438Z" fill="#0E3654"/>
</svg>