<svg width="34" height="35" viewBox="0 0 34 35" fill="none" xmlns="http://www.w3.org/2000/svg">
<path d="M3.21014 4.10332C2.35876 4.10332 1.54225 4.43806 0.940228 5.03391C0.33821 5.62976 0 6.43792 0 7.28059V31.8227C0 32.6654 0.33821 33.4736 0.940228 34.0694C1.54225 34.6653 2.35876 35 3.21014 35H30.7899C31.6412 35 32.4578 34.6653 33.0598 34.0694C33.6618 33.4736 34 32.6654 34 31.8227V7.28059C34 6.43792 33.6618 5.62976 33.0598 5.03391C32.4578 4.43806 31.6412 4.10332 30.7899 4.10332H29.6709V6.11407C29.6435 6.74173 29.3723 7.33468 28.9139 7.76922C28.4555 8.20377 27.8453 8.44633 27.2105 8.44633C26.5758 8.44633 25.9656 8.20377 25.5072 7.76922C25.0488 7.33468 24.7776 6.74173 24.7502 6.11407V4.10332H9.23604V6.11407C9.23604 6.75931 8.97707 7.37813 8.51609 7.83438C8.05512 8.29064 7.4299 8.54695 6.77799 8.54695C6.12607 8.54695 5.50086 8.29064 5.03988 7.83438C4.57891 7.37813 4.31993 6.75931 4.31993 6.11407V4.10332H3.21014ZM5.2417 12.9906H28.7583C29.0821 12.9758 29.3987 13.0881 29.6392 13.3032C29.8796 13.5182 30.0246 13.8186 30.0424 14.1389V30.0253C30.0257 30.346 29.8812 30.6472 29.6404 30.8625C29.3997 31.0778 29.0824 31.1897 28.7583 31.1737H5.22795C4.90464 31.1885 4.58855 31.076 4.34879 30.8608C4.10903 30.6456 3.9651 30.3452 3.94848 30.0253V14.1389C3.95554 13.9797 3.99426 13.8235 4.06242 13.6791C4.13057 13.5347 4.22683 13.4051 4.34567 13.2976C4.46452 13.1901 4.60362 13.1068 4.75501 13.0526C4.9064 12.9983 5.06711 12.9742 5.22795 12.9815L5.2417 12.9906Z" fill="#0E3654"/>
<path d="M5.60399 1.23924V6.10499C5.59396 6.26399 5.61693 6.42335 5.67151 6.57323C5.72608 6.72311 5.8111 6.86035 5.92131 6.97646C6.03152 7.09257 6.1646 7.18509 6.31233 7.24834C6.46006 7.3116 6.61932 7.34425 6.78028 7.34425C6.94125 7.34425 7.1005 7.3116 7.24823 7.24834C7.39596 7.18509 7.52904 7.09257 7.63925 6.97646C7.74946 6.86035 7.83448 6.72311 7.88905 6.57323C7.94363 6.42335 7.9666 6.26399 7.95657 6.10499V1.23924C7.9666 1.08023 7.94363 0.920869 7.88905 0.770991C7.83448 0.621113 7.74946 0.483904 7.63925 0.367793C7.52904 0.251682 7.39596 0.159137 7.24823 0.0958821C7.1005 0.0326269 6.94125 0 6.78028 0C6.61932 0 6.46006 0.0326269 6.31233 0.0958821C6.1646 0.159137 6.03152 0.251682 5.92131 0.367793C5.8111 0.483904 5.72608 0.621113 5.67151 0.770991C5.61693 0.920869 5.59396 1.08023 5.60399 1.23924Z" fill="#0E3654"/>
<path d="M26.0205 1.23924V6.10499C26.0105 6.26399 26.0334 6.42335 26.088 6.57323C26.1426 6.72311 26.2276 6.86035 26.3378 6.97646C26.448 7.09257 26.5811 7.18509 26.7288 7.24834C26.8766 7.3116 27.0358 7.34425 27.1968 7.34425C27.3578 7.34425 27.517 7.3116 27.6647 7.24834C27.8125 7.18509 27.9455 7.09257 28.0558 6.97646C28.166 6.86035 28.251 6.72311 28.3056 6.57323C28.3601 6.42335 28.3831 6.26399 28.3731 6.10499V1.23924C28.3831 1.08023 28.3601 0.920869 28.3056 0.770991C28.251 0.621113 28.166 0.483904 28.0558 0.367793C27.9455 0.251682 27.8125 0.159137 27.6647 0.0958821C27.517 0.0326269 27.3578 0 27.1968 0C27.0358 0 26.8766 0.0326269 26.7288 0.0958821C26.5811 0.159137 26.448 0.251682 26.3378 0.367793C26.2276 0.483904 26.1426 0.621113 26.088 0.770991C26.0334 0.920869 26.0105 1.08023 26.0205 1.23924Z" fill="#0E3654"/>
<path d="M12.4187 14.965H6.19558V21.2651H12.4187V14.965Z" fill="#0E3654"/>
<path d="M20.2514 14.965H14.0283V21.2651H20.2514V14.965Z" fill="#0E3654"/>
<path d="M12.4187 22.7085H6.19558V29.0086H12.4187V22.7085Z" fill="#0E3654"/>
<path d="M20.2514 22.7085H14.0283V29.0086H20.2514V22.7085Z" fill="#0E3654"/>
<path d="M28.3731 14.965H22.15V21.2651H28.3731V14.965Z" fill="#0E3654"/>
<path d="M28.3731 22.7085H22.15V29.0086H28.3731V22.7085Z" fill="#0E3654"/>
</svg>
