<svg width="24" height="24" viewBox="0 0 24 24" fill="none" xmlns="http://www.w3.org/2000/svg">
<path d="M24 24V15.1111C24 10.8148 23.1111 7.40741 18.0741 7.40741C16.1481 7.40741 14.3704 8.2963 13.3333 10.0741V8H8.44444V24H13.4815V16C13.4815 13.9259 13.9259 11.8519 16.4444 11.8519C18.963 11.8519 19.1111 14.2222 19.1111 16.1481V24H24Z" fill="#FAFAFA"/>
<path d="M0.444444 8H5.48148V24H0.444444V8Z" fill="#FAFAFA"/>
<path d="M2.81481 0C1.33333 0 0 1.33333 0 2.96296C0 4.59259 1.33333 5.92593 2.96296 5.92593C4.59259 5.92593 5.92593 4.59259 5.92593 2.96296C5.77778 1.33333 4.44444 0 2.81481 0Z" fill="#FAFAFA"/>
</svg>
