<svg width="24" height="24" viewBox="0 0 24 24" fill="none" xmlns="http://www.w3.org/2000/svg">
<path d="M23.6721 6.00028C23.3611 2.94713 21.2984 0.68796 18.2698 0.245949C16.7719 0.0249436 15.233 0.000387474 13.7105 0.000387474C11.0994 0.000387474 8.48006 -0.0159833 5.87711 0.164095C2.62751 0.401471 0.270118 2.79979 0 6.0412V18.0001C0.253747 21.045 2.37376 23.3287 5.38598 23.7544C6.90028 23.9672 8.44732 23.9999 9.98617 23.9999C12.5809 23.9999 15.1921 24.0081 17.7787 23.828C20.177 23.6562 22.0105 22.4283 23.0664 20.2019C23.5248 19.2279 23.7376 18.1801 23.754 17.116L23.6721 6.00028ZM11.8115 18.1638C8.40639 18.1474 5.66429 15.4053 5.66429 12.0002C5.66429 8.57867 8.43095 5.8202 11.8443 5.83657C15.2494 5.85294 17.9833 8.59504 17.9915 12.0002C17.9997 15.4135 15.2248 18.1801 11.8115 18.1638ZM18.1879 7.02345C17.4021 6.99889 16.7964 6.35225 16.8128 5.55008C16.8292 4.74791 17.4922 4.12582 18.3025 4.15038C19.0801 4.17493 19.694 4.82977 19.6777 5.62375C19.6613 6.42592 18.9983 7.04801 18.1879 7.02345Z" fill="#FAFAFA"/>
<path d="M11.8197 16.0027C9.61779 15.9945 7.82519 14.202 7.82519 12.0001C7.82519 9.78184 9.63416 7.98105 11.8606 7.99743C14.0625 8.0138 15.8387 9.81458 15.8305 12.0165C15.8223 14.2183 14.0297 16.0109 11.8197 16.0027Z" fill="#FAFAFA"/>
</svg>
