<svg xmlns="http://www.w3.org/2000/svg" width="27" height="40" viewBox="0 0 27 40" fill="none">
<path d="M19.7976 11.9941C19.7976 11.9004 19.773 11.8068 19.7533 11.7131C19.7337 11.6194 19.7189 11.5751 19.6993 11.506L19.6403 11.2793L19.596 11.0969C19.5665 11.0032 19.5321 10.9194 19.4977 10.8307L19.424 10.6236L19.3797 10.5053C19.3256 10.3821 19.2666 10.2637 19.2076 10.1454L19.1437 10.0123C19.1343 9.98676 19.1228 9.96203 19.1093 9.93838C19.0306 9.79542 18.9471 9.65738 18.8586 9.51935C18.84 9.49449 18.8236 9.4681 18.8094 9.44047C18.6914 9.25807 18.5784 9.11511 18.4702 8.97708L18.4259 8.91792C18.303 8.76455 18.1717 8.61808 18.0327 8.47917L17.9933 8.43481C16.7985 7.23507 15.1809 6.55505 13.4901 6.54178H13.4163C11.7044 6.54178 10.0625 7.22373 8.85197 8.43761C7.64142 9.65149 6.96134 11.2979 6.96134 13.0145C6.96134 14.7312 7.64142 16.3776 8.85197 17.5915C10.0625 18.8054 11.7044 19.4873 13.4163 19.4873H13.495C14.3395 19.4812 15.1744 19.3083 15.9522 18.9784C16.73 18.6485 17.4353 18.1681 18.0277 17.5647C18.1723 17.4215 18.3086 17.2701 18.4358 17.1112L18.4849 17.0422C18.5992 16.9052 18.7059 16.762 18.8045 16.6133L18.8733 16.5048C18.9618 16.3668 19.0454 16.2287 19.124 16.0808C19.1384 16.0612 19.15 16.0396 19.1585 16.0168C19.1728 15.9813 19.1893 15.9468 19.2076 15.9132V15.859C19.2666 15.7456 19.3207 15.6372 19.3698 15.5238C19.3852 15.4851 19.3983 15.4456 19.4092 15.4055L19.4878 15.1935C19.5222 15.1048 19.5567 15.021 19.5862 14.9322L19.6304 14.7449L19.6894 14.5132C19.6894 14.4491 19.7287 14.3801 19.7435 14.316C19.7582 14.2519 19.773 14.1237 19.7877 14.0301L19.8172 13.8033C19.8172 13.7589 19.8172 13.7146 19.8418 13.6751C19.8615 13.4549 19.8713 13.2331 19.8713 13.0096C19.8713 12.7927 19.8713 12.5709 19.8418 12.354C19.8418 12.3096 19.8418 12.2652 19.8418 12.2209L19.7976 11.9941Z" fill="#0E3654"/>
<path d="M24.7039 21.5085C24.7678 21.405 24.8367 21.2916 24.9301 21.1486C24.9444 21.1325 24.956 21.1142 24.9645 21.0944C25.1366 20.774 25.4021 20.3007 25.4119 20.281C26.4668 18.221 27.0115 15.9366 26.9998 13.6209C26.9998 13.3695 26.9998 13.1279 26.9998 12.8814C26.9998 12.773 26.9998 12.6695 26.9998 12.561V12.354C26.9998 12.2849 26.9998 12.2159 26.9998 12.1568L26.9703 11.8955V11.7082L26.9408 11.437C26.9408 11.368 26.9409 11.299 26.9064 11.23L26.8818 11.0476C26.8818 10.944 26.8474 10.8455 26.8327 10.7469C26.8179 10.6483 26.7983 10.5842 26.7835 10.5053L26.7392 10.2884C26.7392 10.2144 26.7098 10.1356 26.695 10.0666C26.6803 9.99754 26.6409 9.85457 26.6163 9.74612L26.5672 9.56865C26.5672 9.51442 26.5672 9.46019 26.523 9.40104C26.4787 9.34188 26.459 9.17427 26.4246 9.06088L26.3804 8.91792C26.3804 8.86369 26.346 8.80453 26.3312 8.75524C26.3165 8.70594 26.2526 8.5334 26.2083 8.42494L26.1592 8.27705L26.1051 8.12916C26.0559 8.00592 26.0067 7.88267 25.9527 7.76436L25.8937 7.63125L25.8494 7.51787C25.7757 7.35519 25.7019 7.19744 25.6233 7.0249L25.5692 6.91151C25.4856 6.75376 25.4021 6.60094 25.2988 6.41854L25.2595 6.34459C25.166 6.18191 25.0677 6.02416 24.9547 5.85161L24.9252 5.80232C24.8219 5.64457 24.7138 5.48681 24.5958 5.30934L24.5663 5.26498C24.4483 5.10229 24.3254 4.94454 24.2074 4.772L24.1779 4.73256C24.0452 4.56988 23.9125 4.41213 23.765 4.23959C23.6175 4.06705 23.4798 3.92901 23.3323 3.78112C20.8742 1.31624 17.482 0 13.5442 0C5.57006 0 0 5.58048 0 13.5765C0.00126461 16.0467 0.628883 18.4759 1.82389 20.6359L2.02548 21.0106C2.03255 21.0244 2.04077 21.0376 2.05005 21.05L2.38927 21.5775L2.4876 21.7205L13.1607 39.7042C13.214 39.7939 13.2896 39.8683 13.38 39.9201C13.4705 39.9719 13.5727 39.9995 13.6769 40C13.7772 39.9944 13.8746 39.964 13.9603 39.9115C14.0461 39.8591 14.1176 39.7862 14.1685 39.6993L16.135 36.3175L24.581 21.7402C24.5761 21.6909 24.64 21.5923 24.7039 21.5085ZM21.0463 13.8181C21.0463 13.892 21.0463 13.9611 21.0119 14.0301L20.9873 14.2125C20.9873 14.3357 20.9529 14.459 20.9283 14.5773C20.9037 14.6956 20.8841 14.7646 20.8595 14.8583L20.8103 15.0505C20.8103 15.1393 20.7661 15.228 20.7415 15.3118C20.7169 15.3956 20.6628 15.5386 20.6186 15.647L20.5547 15.8294C20.5547 15.8886 20.5104 15.9527 20.4858 16.0118C20.4268 16.1548 20.358 16.2879 20.2941 16.421L20.2351 16.5442L20.1663 16.6823C20.0729 16.8499 19.9696 17.0175 19.8664 17.1753L19.7877 17.3084C19.6698 17.4809 19.5419 17.6534 19.4092 17.8013L19.3551 17.8753C19.2125 18.0478 19.0552 18.2253 18.8635 18.3978C18.1576 19.1189 17.3163 19.6927 16.3881 20.0861C15.46 20.4795 14.4633 20.6848 13.4557 20.6902H13.377C11.3798 20.6394 9.48147 19.8082 8.08681 18.3738C6.69215 16.9394 5.91157 15.0154 5.91157 13.0121C5.91157 11.0088 6.69215 9.08473 8.08681 7.65034C9.48147 6.21595 11.3798 5.38474 13.377 5.33399H13.4557C14.454 5.34108 15.4411 5.54544 16.3606 5.9354C17.2801 6.32535 18.1139 6.89325 18.8143 7.60661L18.8487 7.64112C19.0076 7.79782 19.1585 7.96234 19.301 8.13409L19.3502 8.20311C19.4878 8.37565 19.6206 8.54819 19.7386 8.72566L19.7976 8.82425C19.9254 9.01651 20.0237 9.18412 20.1171 9.35174L20.186 9.4947L20.2155 9.55386C20.3039 9.73133 20.3728 9.87429 20.4367 10.0468C20.4596 10.106 20.4842 10.1701 20.5104 10.2391L20.5694 10.4116C20.6137 10.5201 20.6579 10.6335 20.6923 10.7469C20.7267 10.8602 20.7415 10.9194 20.7611 11.0081L20.8103 11.2004C20.8103 11.2941 20.8595 11.3877 20.8791 11.4814C20.8988 11.5751 20.9185 11.7229 20.9381 11.8462L20.9627 12.0286C20.9627 12.0976 20.9627 12.1666 20.9971 12.2406C21.0217 12.4969 21.0315 12.7631 21.0315 13.0195C21.0315 13.2758 21.0709 13.5371 21.0463 13.7934V13.8181Z" fill="#0E3654"/>
</svg>