<svg width="105" height="101" viewBox="0 0 105 101" fill="none" xmlns="http://www.w3.org/2000/svg">
<path d="M46.322 42.73C46.5008 42.9227 46.7174 43.0763 46.9583 43.1814C47.1992 43.2865 47.4592 43.3408 47.722 43.3408C47.9849 43.3408 48.2449 43.2865 48.4858 43.1814C48.7266 43.0763 48.9433 42.9227 49.122 42.73L67.272 23.5C68.6119 22.0624 69.634 20.3588 70.272 18.5C70.7849 16.9965 71.0451 15.4185 71.042 13.83C71.042 6.24002 65.2521 0.0699976 58.132 0.0599976C56.0668 0.0912169 54.0404 0.626893 52.2295 1.62036C50.4186 2.61383 48.8781 4.03497 47.742 5.76001C46.6092 4.01367 45.0625 2.57412 43.2395 1.56927C41.4165 0.564431 39.3735 0.0253872 37.292 0C30.172 0 24.3821 6.18002 24.3821 13.77C24.3814 15.3224 24.6278 16.8651 25.112 18.34C25.6392 19.9398 26.4524 21.4306 27.512 22.74C27.9286 23.2534 28.3832 23.7348 28.872 24.18L46.322 42.73ZM28.172 17.19C27.8106 16.0861 27.6283 14.9315 27.6321 13.77C27.6108 11.0739 28.6236 8.47217 30.462 6.5C31.323 5.55794 32.3701 4.80491 33.5372 4.28851C34.7043 3.77211 35.9658 3.50359 37.242 3.5C39.1286 3.53526 40.9635 4.12227 42.5203 5.18854C44.077 6.25481 45.2875 7.75364 46.002 9.5C46.1354 9.84099 46.3685 10.1338 46.6709 10.3403C46.9733 10.5467 47.3309 10.6572 47.697 10.6572C48.0632 10.6572 48.4208 10.5467 48.7232 10.3403C49.0256 10.1338 49.2587 9.84099 49.392 9.5C50.1055 7.75289 51.3157 6.25332 52.8727 5.18689C54.4296 4.12046 56.2652 3.53397 58.152 3.5C59.4282 3.50359 60.6898 3.77211 61.8569 4.28851C63.0239 4.80491 64.0711 5.55794 64.932 6.5C66.7705 8.47217 67.7833 11.0739 67.762 13.77C67.7755 16.4725 66.7602 19.0789 64.922 21.06L47.742 39.28L31.152 21.71L31.062 21.62C29.7354 20.4189 28.746 18.8917 28.192 17.19H28.172Z" fill="white"/>
<path d="M103.952 62.63C103.757 62.3583 103.5 62.1369 103.203 61.9839C102.906 61.8309 102.576 61.7507 102.242 61.75C96.992 61.75 93.422 58.92 89.242 55.64C88.342 54.93 87.432 54.21 86.492 53.51C82.652 50.65 77.782 47.73 70.792 47.73C67.792 47.73 65.482 47.73 63.592 47.82H48.912C47.3078 47.9106 45.799 48.6117 44.6952 49.7795C43.5915 50.9473 42.9766 52.4932 42.9766 54.1C42.9766 55.7069 43.5915 57.2527 44.6952 58.4205C45.799 59.5883 47.3078 60.2894 48.912 60.38H62.522C63.4021 60.6068 64.1787 61.1265 64.724 61.8535C65.2693 62.5806 65.5508 63.4716 65.522 64.38C65.5296 65.0623 65.3716 65.7363 65.0616 66.3441C64.7516 66.952 64.2988 67.4755 63.742 67.87L58.742 69.29C57.052 69.72 55.332 70.21 53.532 70.76L53.182 70.86C43.832 73.5 40.632 74.38 39.672 74.63C39.3393 74.6588 39.0047 74.6588 38.672 74.63L17.322 59.87L13.422 56.87C13.3552 56.811 13.2813 56.7607 13.202 56.72C12.9891 56.5783 12.7688 56.4481 12.542 56.33C12.1316 56.1083 11.7034 55.9209 11.262 55.77C10.9105 55.6659 10.5533 55.5824 10.192 55.52C9.3195 55.358 8.42457 55.358 7.55203 55.52C5.43429 55.7866 3.4905 56.8286 2.0961 58.4446C0.701696 60.0606 -0.0443551 62.1361 0.00204092 64.27C-0.00407046 66.5456 0.857821 68.7379 2.41204 70.4L2.52203 70.52C3.07321 71.0913 3.69885 71.5857 4.38205 71.99L39.862 99.41C40.0506 99.5568 40.264 99.6685 40.492 99.74L40.842 99.89C41.8571 100.281 42.9345 100.484 44.022 100.49C44.6571 100.486 45.2902 100.419 45.912 100.29H46.202C58.922 96.84 81.882 90.62 92.782 87.76L93.012 87.68L93.712 87.41C96.4817 86.5726 99.3359 86.0461 102.222 85.84C102.501 85.84 102.778 85.7848 103.036 85.6777C103.294 85.5705 103.528 85.4135 103.725 85.2156C103.922 85.0177 104.078 84.7827 104.184 84.5244C104.289 84.266 104.343 83.9893 104.342 83.71V82.33C104.352 82.2002 104.352 82.0698 104.342 81.94V64.28C104.397 63.993 104.39 63.6977 104.323 63.4135C104.256 63.1292 104.129 62.8622 103.952 62.63ZM100.092 81.63C97.5226 81.9935 94.9803 82.5281 92.482 83.23L92.252 83.31L91.572 83.58C80.572 86.46 57.762 92.65 45.072 96.09H44.972C44.1065 96.2715 43.207 96.1986 42.382 95.88L42.212 95.81L6.86203 68.48C6.77492 68.4109 6.68112 68.3505 6.58203 68.3C6.21173 68.0953 5.87457 67.8357 5.58203 67.53V67.47C4.75103 66.5931 4.29223 65.4282 4.30203 64.22C4.25762 63.1258 4.62382 62.0544 5.32873 61.2163C6.03364 60.3782 7.02636 59.8338 8.11203 59.69H8.36203C8.90621 59.579 9.4693 59.6031 10.002 59.76C10.1945 59.8298 10.3816 59.9133 10.562 60.01C10.692 60.08 10.822 60.15 10.942 60.23L14.772 63.23L14.862 63.3L36.612 78.3C36.8149 78.4405 37.0421 78.5422 37.282 78.6C38.1944 78.8218 39.1357 78.8993 40.072 78.83C40.2066 78.8198 40.3404 78.7998 40.472 78.77C41.472 78.52 46.122 77.22 54.302 74.91L54.702 74.8C56.482 74.25 58.142 73.8 59.822 73.36L65.192 71.84C65.3664 71.7856 65.5341 71.7117 65.692 71.62C66.9326 70.8656 67.9572 69.8037 68.6668 68.537C69.3763 67.2704 69.7467 65.8419 69.742 64.39C69.7819 62.4491 69.1343 60.5565 67.9138 59.0469C66.6932 57.5372 64.9782 56.5076 63.072 56.14C62.9491 56.1252 62.8249 56.1252 62.702 56.14H48.912C48.375 56.14 47.8599 55.9267 47.4801 55.5469C47.1004 55.1672 46.887 54.6521 46.887 54.115C46.887 53.5779 47.1004 53.0629 47.4801 52.6831C47.8599 52.3033 48.375 52.09 48.912 52.09H63.742C65.622 52.03 67.962 52 70.872 52C76.602 52 80.592 54.37 84.042 56.94C84.942 57.61 85.822 58.31 86.692 59C90.572 62.07 94.5721 65.24 100.132 65.9V81.58L100.092 81.63Z" fill="white"/>
</svg>
