<svg width="87" height="91" viewBox="0 0 87 91" fill="none" xmlns="http://www.w3.org/2000/svg">
<path d="M43.391 90.171H43.721C67.641 89.991 86.951 69.611 86.721 44.741C86.7086 32.8886 82.0861 21.5059 73.8311 13.001C69.8558 8.85557 65.0767 5.56461 59.786 3.32936C54.4954 1.09412 48.8044 -0.038429 43.061 0.000994965C19.151 0.170995 -0.159013 20.541 0.000987163 45.411C0.0229574 57.2712 4.65197 68.659 12.911 77.171C16.8504 81.2838 21.5821 84.556 26.8206 86.7902C32.0591 89.0245 37.6959 90.1745 43.391 90.171ZM43.151 4.24099H43.431C48.5554 4.24862 53.6253 5.2926 58.3357 7.31014C63.0462 9.32768 67.2998 12.2771 70.841 15.981C78.3308 23.702 82.5232 34.034 82.531 44.791C82.691 67.321 65.2711 85.791 43.7011 85.941C38.5296 85.9713 33.4064 84.9457 28.6452 82.927C23.8839 80.9083 19.5847 77.9391 16.011 74.201C8.52258 66.4709 4.331 56.1334 4.32106 45.371C4.15106 22.831 21.571 4.38099 43.151 4.24099Z" fill="white"/>
<path d="M32.491 77.521H54.321V56.361H74.641V33.7809H54.321V12.621H32.491V33.7809H12.151V56.361H32.4611L32.491 77.521ZM16.431 52.101V38.0309H36.741V16.871H50.071V38.0309H70.381V52.101H50.071V73.241H36.741V52.101H16.431Z" fill="white"/>
</svg>
