<svg width="121" height="70" viewBox="0 0 121 70" fill="none" xmlns="http://www.w3.org/2000/svg">
<path d="M16.5144 37.838C15.7119 38.0087 14.9655 38.3793 14.3445 38.9155C13.7235 39.4517 13.248 40.1362 12.9621 40.9052C12.6763 41.6743 12.5893 42.5031 12.7094 43.3147C12.8294 44.1264 13.1525 44.8946 13.6487 45.548L11.6169 57.5877C11.5739 57.8412 11.5865 58.1011 11.6539 58.3493C11.7213 58.5975 11.8419 58.828 12.0072 59.025C12.174 59.2225 12.3819 59.3812 12.6163 59.49C12.8508 59.5989 13.1062 59.6551 13.3647 59.6549H21.6869C21.9415 59.6572 22.1937 59.6047 22.4262 59.501C22.6587 59.3972 22.8663 59.2446 23.0347 59.0536C23.203 58.8625 23.3282 58.6375 23.4018 58.3937C23.4755 58.15 23.4958 57.8932 23.4614 57.6409L21.7313 45.0866C22.3855 43.986 22.5791 42.6717 22.2701 41.4292C21.9612 40.1867 21.1746 39.1162 20.0811 38.4501V31.929L31.0472 36.6845V63.9136C31.0472 65.5263 31.6873 67.073 32.8268 68.2142C33.9663 69.3554 35.5121 69.9977 37.1247 70H87.1733C88.7868 69.9977 90.3335 69.3557 91.4744 68.2147C92.6153 67.0738 93.2574 65.5271 93.2597 63.9136V35.0343L119.38 23.6955C119.707 23.553 119.984 23.315 120.174 23.0126C120.364 22.7103 120.458 22.3577 120.444 22.0009C120.432 21.6422 120.31 21.2958 120.096 21.0076C119.882 20.7193 119.586 20.5026 119.247 20.3862L59.8023 0.104115C59.4152 -0.0347051 58.9917 -0.0347051 58.6045 0.104115C38.2603 7.80526 4.85622 20.0845 1.75092 20.2708C1.34585 20.2762 0.954779 20.42 0.642748 20.6784C0.330718 20.9367 0.116545 21.294 0.0357026 21.691C-0.0451398 22.088 0.0122381 22.5006 0.198376 22.8604C0.384513 23.2203 0.688146 23.5056 1.05885 23.6689L16.5055 30.3675L16.5144 37.838ZM15.4674 56.106L17.2952 45.2729C17.3471 44.967 17.3179 44.6528 17.2105 44.3617C17.1031 44.0705 16.9211 43.8127 16.6829 43.6138C16.4762 43.4486 16.3239 43.2252 16.2455 42.9724C16.1671 42.7197 16.1664 42.4492 16.2434 42.196C16.3205 41.9429 16.4718 41.7187 16.6777 41.5524C16.8836 41.3862 17.1347 41.2856 17.3984 41.2636C17.6621 41.2416 17.9264 41.2993 18.157 41.4292C18.3875 41.559 18.5738 41.7551 18.6917 41.992C18.8096 42.2289 18.8537 42.4958 18.8183 42.758C18.7828 43.0203 18.6695 43.2659 18.4929 43.463C18.3278 43.6536 18.2051 43.8772 18.1332 44.1189C18.0613 44.3607 18.0418 44.6149 18.0759 44.8648L19.6286 56.0971L15.4674 56.106ZM89.693 63.9225C89.6907 64.5947 89.4226 65.2388 88.9472 65.7142C88.4719 66.1895 87.8278 66.4576 87.1556 66.46H37.1247C36.4533 66.4576 35.8101 66.1892 35.3362 65.7136C34.8622 65.238 34.5961 64.5939 34.5961 63.9225V38.2372L59.5272 49.0525C59.7507 49.146 59.9905 49.1941 60.2326 49.1941C60.4748 49.1941 60.7145 49.146 60.9379 49.0525L89.7108 36.5692L89.693 63.9225ZM7.18075 22.4711C20.0278 18.4697 50.8679 6.85592 59.2877 3.67077L113.764 22.3026L60.1927 45.4859L24.872 30.1546L54.7096 26.2153C56.3924 27.1177 58.2842 27.5585 60.1927 27.4929C64.3094 27.4929 67.4147 25.8515 67.4147 23.6866C67.4147 21.5218 64.3094 19.8716 60.1927 19.8716C56.6438 19.8716 53.8578 21.096 53.1569 22.8172L18.555 27.3953L7.18075 22.4711ZM54.7895 23.7044C54.7895 22.8704 56.91 21.6638 60.2282 21.6638C63.5464 21.6638 65.6758 22.8704 65.6758 23.7044C65.6758 24.5384 63.5375 25.7184 60.1927 25.7184C56.8478 25.7184 54.7717 24.5295 54.7717 23.7044H54.7895Z" fill="white"/>
</svg>
