<svg width="29" height="24" viewBox="0 0 29 24" fill="none" xmlns="http://www.w3.org/2000/svg">
<path d="M27.8724 2.86779C27.2762 3.16968 26.5309 3.32085 25.9347 3.47179C26.68 2.71707 27.2762 1.81148 27.5743 0.905813C27.5743 0.754869 27.5743 0.603851 27.4252 0.452907C27.2762 0.452907 27.2762 0.452907 27.1272 0.452907C26.2329 1.05668 25.1895 1.50959 24.1462 1.66053H23.9971C23.848 1.66053 23.55 1.66039 23.4009 1.50944C22.2085 0.452833 20.8671 0 19.3766 0C18.7803 0 18.0351 0.150871 17.4389 0.301815C15.5013 0.905592 13.8617 2.5662 13.4145 4.67942C13.2655 5.43414 13.1164 6.18886 13.2654 6.94359V7.09431L13.1164 7.2454C8.79395 6.79257 4.76959 4.67935 1.93764 1.20763C1.78859 1.05668 1.63955 1.05668 1.4905 1.20763C1.4905 1.20763 1.4905 1.20741 1.4905 1.35835C0 3.77346 0.447169 6.94329 2.53387 8.90557C2.08672 8.75462 1.63954 8.60383 1.19238 8.30194C1.04333 8.15099 0.894302 8.30209 0.745252 8.45303V8.60375C0.745252 11.0189 2.08665 13.2831 4.32241 14.3397H4.17339C3.87529 14.3397 3.42812 14.3396 3.13002 14.1886C2.98097 14.1886 2.83194 14.3399 2.68289 14.4908V14.6415C3.42814 16.9057 5.21673 18.5662 7.60153 18.868C5.66388 20.2265 3.42814 20.8304 1.19238 20.8304H0.447133C0.298083 20.8304 0 20.9813 0 21.1322C0 21.2831 1.81902e-05 21.5849 0.298119 21.7358C2.83198 23.2453 5.81291 24 8.79392 24C11.3278 24 13.8617 23.5472 16.0974 22.4906C18.1841 21.5849 19.9727 20.2265 21.4632 18.4151C22.8047 16.7547 23.9971 14.9435 24.7423 12.8303C25.4876 10.868 25.7857 8.90571 25.7857 6.79249V6.6414C25.7857 6.33951 25.9347 6.03763 26.2328 5.88668C27.1271 5.13196 28.0215 4.22659 28.6177 3.16998C28.7667 3.01903 28.6176 2.86802 28.4686 2.71707C28.1705 2.71707 28.0215 2.71685 27.8724 2.86779Z" fill="#7BC18F"/>
</svg>
