<svg width="29" height="20" viewBox="0 0 29 20" fill="none" xmlns="http://www.w3.org/2000/svg">
<path d="M28.1631 3.65931C27.8492 1.92808 26.7952 0.815783 25.1402 0.510799C24.4585 0.385217 23.7633 0.295516 23.0726 0.26412L14.255 0.00398672C13.5777 0.00398672 12.905 -0.00498341 12.2277 0.00398672C9.42454 0.0533224 6.62586 0.0802328 3.84064 0.430068C2.10492 0.649836 0.902919 1.6814 0.544113 3.39918C0.342286 4.3545 0.230159 5.33673 0.153913 6.31447C-0.0165196 8.40451 -0.0568852 10.5035 0.0911219 12.598C0.180823 13.8942 0.30192 15.1949 0.517203 16.4731C0.799762 18.1506 1.95242 19.2584 3.57602 19.5006C4.53582 19.6441 5.50908 19.7652 6.47785 19.7966C9.45594 19.8952 12.4385 19.9849 15.4166 19.9984C18.3857 20.0119 21.3593 19.9446 24.315 19.6306C25.0774 19.5499 25.8309 19.4288 26.4947 19.0027C27.598 18.2941 28.1004 17.2311 28.217 15.9843C28.3784 14.2934 28.5444 12.6025 28.5982 10.9072C28.6789 8.48076 28.5937 6.05882 28.1631 3.65931ZM11.4742 14.2844C11.4742 11.4095 11.4742 8.5884 11.4742 5.71347C13.9545 7.13972 16.4078 8.55252 18.9149 9.99671C16.4212 11.4364 13.9724 12.8492 11.4742 14.2844Z" fill="#FAFAFA"/>
</svg>
