<?xml version="1.0" standalone="no"?>
<!DOCTYPE svg PUBLIC "-//W3C//DTD SVG 20010904//EN"
 "http://www.w3.org/TR/2001/REC-SVG-20010904/DTD/svg10.dtd">
<svg version="1.0" xmlns="http://www.w3.org/2000/svg"
 width="105.000000pt" height="105.000000pt" viewBox="0 0 105.000000 105.000000"
 preserveAspectRatio="xMidYMid meet">
<metadata>
Created by potrace 1.14, written by Peter Selinger 2001-2017
</metadata>
<g transform="translate(0.000000,105.000000) scale(0.100000,-0.100000)"
fill="#000000" stroke="none">
<path d="M201 1036 c-14 -16 -3 -25 124 -99 44 -26 112 -70 152 -99 56 -39 77
-49 96 -44 38 9 39 29 7 112 -38 100 -55 124 -85 124 -14 0 -25 -2 -25 -4 0
-2 11 -28 24 -57 46 -106 46 -106 -36 -51 -78 53 -190 116 -224 126 -13 4 -26
1 -33 -8z"/>
<path d="M650 1015 c0 -7 7 -39 15 -70 8 -31 17 -74 20 -97 9 -60 21 -85 50
-104 25 -16 27 -16 80 20 57 38 66 55 39 77 -13 11 -23 9 -63 -13 l-47 -27 -2
25 c-4 56 -42 179 -58 191 -23 17 -34 16 -34 -2z"/>
<path d="M175 846 c-30 -21 -11 -45 62 -77 38 -16 95 -42 127 -57 l59 -28
-185 -64 c-191 -65 -210 -76 -200 -122 8 -36 52 -34 147 7 17 8 86 34 154 59
68 26 131 51 141 56 46 24 23 95 -41 131 -54 29 -196 95 -225 103 -11 3 -28 0
-39 -8z"/>
<path d="M628 689 c-44 -25 0 -119 55 -119 23 0 45 30 41 58 -1 6 -2 16 -3 22
-2 15 -44 50 -60 50 -9 0 -24 -5 -33 -11z"/>
<path d="M880 667 c-80 -32 -82 -34 -76 -78 4 -29 16 -48 53 -81 26 -24 59
-55 73 -69 30 -30 50 -27 50 6 0 16 -20 41 -61 78 l-61 56 29 14 c15 8 45 20
66 27 33 10 38 16 35 38 -4 35 -34 37 -108 9z"/>
<path d="M409 422 c-97 -69 -125 -93 -127 -113 -2 -14 4 -31 13 -39 22 -18 45
-6 155 80 l90 70 0 -29 c0 -25 -10 -79 -34 -191 -3 -14 -13 -55 -22 -91 -19
-72 -15 -99 14 -99 38 0 53 24 76 130 28 122 49 252 48 295 -1 33 -41 75 -71
75 -10 0 -73 -39 -142 -88z"/>
<path d="M758 473 c-37 -9 -45 -43 -45 -195 -1 -162 7 -189 45 -148 18 19 20
34 18 131 0 60 1 109 4 109 3 0 32 -39 65 -86 75 -106 83 -114 100 -90 20 26
12 48 -46 132 -69 99 -120 152 -141 147z"/>
</g>
</svg>
